<svg width="507" height="391" viewBox="0 0 507 391" fill="none" xmlns="http://www.w3.org/2000/svg">
<rect width="507" height="391" fill="black"/>
<path d="M0.579545 4.21023V3.27273H7.125V4.21023H4.38068V12H3.32386V4.21023H0.579545Z" fill="black"/>
<path d="M158.223 272V152.2H98.2227V128H242.223V152.2H182.223V272H158.223Z" fill="white"/>
<path d="M257.58 272V128H374.58C379.514 128 383.98 129.2 387.98 131.6C392.114 134 395.38 137.267 397.78 141.4C400.314 145.533 401.58 150.067 401.58 155V245C401.58 249.933 400.314 254.467 397.78 258.6C395.38 262.733 392.114 266 387.98 268.4C383.98 270.8 379.514 272 374.58 272H257.58ZM285.18 247.8H373.78C374.714 247.8 375.514 247.467 376.18 246.8C376.98 246.133 377.38 245.267 377.38 244.2V155.8C377.38 154.733 376.98 153.867 376.18 153.2C375.514 152.533 374.714 152.2 373.78 152.2H285.18C284.114 152.2 283.18 152.533 282.38 153.2C281.714 153.867 281.38 154.733 281.38 155.8V244.2C281.38 245.267 281.714 246.133 282.38 246.8C283.18 247.467 284.114 247.8 285.18 247.8Z" fill="#FFF200"/>
</svg>
